<svg xmlns="http://www.w3.org/2000/svg" xmlns:xlink="http://www.w3.org/1999/xlink" width="543" height="303" viewBox="0 0 543 303">
    <defs>
        <path id="a" d="M542.413 92V.61H0V92z"/>
        <path id="c" d="M0 302.388h542.413V0H0z"/>
    </defs>
    <g fill="none" fill-rule="evenodd">
        <path fill="#4C2C0F" d="M291.935 104.706c-25.37 0-41.933-9.683-41.933-9.683s-9.644-88.44 36.69-88.44c57.868 0 39.208 88.44 39.208 88.44s-8.596 9.683-33.965 9.683z"/>
        <path fill="#FFEBD7" d="M298.633 140.449a11.31 11.31 0 0 0 2.306-6.844V95.023h-22.622v38.582c0 2.472.81 4.876 2.306 6.844 4.526 5.956 13.484 5.956 18.01 0z"/>
        <path fill="#FCDFC5" d="M300.939 109.108a34.91 34.91 0 0 1-22.622 0V95.023h22.622v14.085z"/>
        <path fill="#FFF2E3" d="M257.393 38.819c0-17.803 14.432-32.236 32.236-32.236 17.803 0 32.235 14.433 32.235 32.236l2.52 26.373c1.486 15.56-7.55 30.21-22.121 35.867a34.914 34.914 0 0 1-25.27 0c-14.57-5.656-23.606-20.307-22.12-35.867l2.52-26.373z"/>
        <path fill="#723B09" d="M270.334 50.403s-20.332 29.772-13.833 54.302c0 0-13.26-4.822-13.26-19.498 0-14.677-11.297-89.234 50.831-85.036 46.546 3.145 43.688 69.52 35.492 94.715a14.7 14.7 0 0 1-10.793 9.819s6.98-26.453 4.538-50.756c-2.44-24.303-11.876-30.383-11.876-30.383s-7.768 29.353-41.099 26.837z"/>
        <path fill="#FFD2D2" d="M268.978 76.478c4.473 0 8.098-3.005 8.098-6.713s-3.625-6.713-8.098-6.713c-4.472 0-8.097 3.005-8.097 6.713s3.625 6.713 8.097 6.713zM310.278 76.478c4.473 0 8.098-3.005 8.098-6.713s-3.625-6.713-8.098-6.713c-4.472 0-8.097 3.005-8.097 6.713s3.625 6.713 8.097 6.713z"/>
        <path fill="#4C2C0F" d="M263.129 46.787c.59-.341 1.434-.828 2.482-1.333a28.517 28.517 0 0 1 3.652-1.471c1.358-.423 2.858-.732 4.288-.653.712.047 1.399.188 1.995.46.297.13.577.307.826.467l.92.62c.55.38 1.096.765 1.607 1.144.248.195.5.376.718.577.235.186.455.372.653.564.41.372.764.738 1.07 1.076.296.342.554.653.744.925.196.269.336.494.429.65.096.158.133.242.133.242.022.049.08.072.129.05a.1.1 0 0 0 .058-.08s.045-.43-.131-1.138c-.078-.36-.23-.774-.432-1.243a8.98 8.98 0 0 0-.861-1.473c-.354-.52-.803-1.027-1.312-1.527-.5-.507-1.092-.972-1.748-1.423a19.662 19.662 0 0 0-.967-.574 6.37 6.37 0 0 0-1.234-.518 7.882 7.882 0 0 0-2.585-.31c-1.708.067-3.284.565-4.675 1.137-1.396.574-2.603 1.276-3.605 1.91-2.006 1.275-3.181 2.33-3.181 2.33a.094.094 0 0 0-.01.134.096.096 0 0 0 .124.017s.324-.215.913-.56zM269.375 56.285c-.154-.264.143-.561.407-.407l1.205.703c.44-1.35 1.216-2.25 2.102-2.25 1.372 0 2.484 2.15 2.484 4.801 0 2.653-1.112 4.803-2.484 4.803-1.372 0-2.484-2.15-2.484-4.803 0-.234.012-.463.03-.69l-1.26-2.157zM317.316 46.787c-.591-.341-1.434-.828-2.482-1.333a28.475 28.475 0 0 0-3.653-1.471c-1.357-.423-2.857-.732-4.287-.653-.712.047-1.399.188-1.995.46-.297.13-.577.307-.826.467l-.92.62c-.551.38-1.096.765-1.607 1.144-.248.195-.501.376-.718.577a8.64 8.64 0 0 0-.653.564 15.18 15.18 0 0 0-1.07 1.076c-.296.342-.554.653-.744.925a8.348 8.348 0 0 0-.429.65c-.096.158-.133.242-.133.242a.098.098 0 0 1-.129.05.1.1 0 0 1-.058-.08s-.045-.43.131-1.138c.078-.36.229-.774.432-1.243a8.98 8.98 0 0 1 .861-1.473c.354-.52.803-1.027 1.312-1.527.5-.507 1.092-.972 1.748-1.423.322-.205.635-.388.967-.574a6.37 6.37 0 0 1 1.234-.518 7.882 7.882 0 0 1 2.585-.31c1.708.067 3.284.565 4.675 1.137 1.396.574 2.603 1.276 3.605 1.91 2.006 1.275 3.181 2.33 3.181 2.33.04.035.044.095.01.134a.096.096 0 0 1-.124.017s-.324-.215-.913-.56zM311.07 56.285c.153-.264-.144-.561-.408-.407l-1.205.703c-.44-1.35-1.216-2.25-2.102-2.25-1.372 0-2.484 2.15-2.484 4.801 0 2.653 1.112 4.803 2.484 4.803 1.372 0 2.484-2.15 2.484-4.803 0-.234-.012-.463-.029-.69l1.26-2.157z"/>
        <path fill="#FCDFC5" d="M285.22 67.631c1.699-3.638 2.934-7.814 3.773-11.272.335-1.38 2.276-1.408 2.65-.038 1.456 5.316 3.694 10.588 3.694 10.588l.333.774a2.29 2.29 0 0 1 .356 1.917 2.293 2.293 0 0 1-1.267 1.5 2.238 2.238 0 0 1-1.797.054 2.913 2.913 0 0 1-2.488 1.406 2.915 2.915 0 0 1-2.505-1.437 2.305 2.305 0 0 1-.86.193c-.625.016-1.203-.288-1.632-.743-.787-.837-.804-1.498-.66-2.099a2.33 2.33 0 0 1 .403-.843z"/>
        <path fill="#FFA4A4" d="M300.27 81.866a.943.943 0 0 0-1.87-.252c-.03.188-.723 4.009-7.662 4.009-7.156 0-8.301-4.075-8.312-4.117a.943.943 0 1 0-1.826.476c.059.226 1.541 5.528 10.138 5.528 8.696 0 9.502-5.413 9.532-5.644z"/>
        <path fill="#36B2CE" d="M237.652 226.458h103.952v-81.516c0-12.39-10.045-22.436-22.437-22.436h-19.892l-9.647 6.07-11.31-6.07h-18.23c-12.39 0-22.436 10.045-22.436 22.436v81.516z"/>
        <path fill="#F2F2F2" d="M319.168 122.506l-25.996 31.137a4.617 4.617 0 0 1-7.087 0l-25.996-31.137h21.363l8.177 6.603 9.647-6.603h19.892z"/>
        <path fill="#FFF" d="M289.628 125.746c0-.341-.138-.667-.384-.904l-13.605-13.144a1.257 1.257 0 0 0-2.06.493l-3.176 9.173c-.148.427-.055.9.244 1.24l16.781 19.053c.766.869 2.2.327 2.2-.831v-15.08zM289.628 125.746c0-.341.138-.667.384-.904l13.605-13.144a1.257 1.257 0 0 1 2.061.493l3.175 9.173c.148.427.055.9-.244 1.24l-16.78 19.053c-.767.869-2.2.327-2.2-.831v-15.08z"/>
        <g transform="translate(0 210.388)">
            <mask id="b" fill="#fff">
                <use xlink:href="#a"/>
            </mask>
            <path fill="#4F78BC" d="M542.413 54.52c0 20.7-16.735 37.48-37.378 37.48H37.378C16.735 92 0 75.22 0 54.52V38.09C0 17.39 16.735.61 37.378.61h467.657c20.643 0 37.378 16.78 37.378 37.48v16.43z" mask="url(#b)"/>
        </g>
        <path fill="#2E4970" d="M480.413 118.591c.807 0 1.467-.66 1.467-1.467v-17.6c0-.808-.66-1.468-1.467-1.468h-2.697c-.807 0-1.467.66-1.467 1.467v17.601c0 .807.66 1.467 1.467 1.467h2.697z"/>
        <path fill="#3764A5" d="M451.55 102.03h54.697a1.47 1.47 0 0 0 1.466-1.466V79.65a1.47 1.47 0 0 0-1.466-1.467H451.55c-.807 0-1.467.66-1.467 1.467v20.913c0 .807.66 1.467 1.467 1.467"/>
        <path fill="#4F78BC" d="M398.557 137.076h107.69a1.47 1.47 0 0 0 1.466-1.467v-14.29c0-4.449-3.64-8.09-8.089-8.09H405.18c-4.449 0-8.09 3.641-8.09 8.09v14.29c0 .807.66 1.467 1.467 1.467"/>
        <path fill="#2E4970" d="M454.862 98.056h48.072c.807 0 1.467-.66 1.467-1.467V83.625c0-.807-.66-1.467-1.467-1.467h-48.072c-.807 0-1.467.66-1.467 1.467V96.59c0 .807.66 1.467 1.467 1.467"/>
        <path fill="#3764A5" d="M397.095 135.906h55.308v75.091h-78.121c-3.662-7.603-5.714-16.128-5.714-25.132 0-21.27 11.453-39.865 28.527-49.959"/>
        <path fill="#2E4970" d="M452.406 135.906h55.308v75.091h-78.121c-3.662-7.603-5.714-16.128-5.714-25.132 0-21.27 11.453-39.865 28.527-49.959"/>
        <path fill="#2E4970" d="M452.402 113.23h44.35c6.03 0 10.961 4.931 10.961 10.96v10.9a1.993 1.993 0 0 1-1.987 1.986h-53.324V113.23zM414.505 155.235h8.775a1.47 1.47 0 0 0 1.466-1.467v-4.399a1.47 1.47 0 0 0-1.466-1.466h-8.775a1.47 1.47 0 0 0-1.467 1.466v4.399c0 .807.66 1.467 1.467 1.467M400.782 155.235h8.775a1.47 1.47 0 0 0 1.466-1.467v-4.399a1.47 1.47 0 0 0-1.466-1.466h-8.775a1.47 1.47 0 0 0-1.467 1.466v4.399c0 .807.66 1.467 1.467 1.467M387.058 155.235h8.775a1.47 1.47 0 0 0 1.466-1.467v-4.399a1.47 1.47 0 0 0-1.466-1.466h-8.775a1.47 1.47 0 0 0-1.467 1.466v4.399c0 .807.66 1.467 1.467 1.467M408.652 166.138h8.774c.807 0 1.467-.66 1.467-1.467v-4.4a1.47 1.47 0 0 0-1.467-1.465h-8.774a1.47 1.47 0 0 0-1.467 1.466v4.399c0 .807.66 1.467 1.467 1.467M394.928 166.138h8.774c.807 0 1.467-.66 1.467-1.467v-4.4a1.47 1.47 0 0 0-1.467-1.465h-8.774a1.47 1.47 0 0 0-1.467 1.466v4.399c0 .807.66 1.467 1.467 1.467M381.205 166.138h8.774c.807 0 1.467-.66 1.467-1.467v-4.4a1.47 1.47 0 0 0-1.467-1.465h-8.774a1.47 1.47 0 0 0-1.467 1.466v4.399c0 .807.66 1.467 1.467 1.467M405.34 177.118h8.774c.807 0 1.466-.66 1.466-1.467v-4.398c0-.807-.66-1.467-1.466-1.467h-8.774c-.807 0-1.467.66-1.467 1.467v4.398c0 .807.66 1.467 1.466 1.467M391.616 177.118h8.774c.807 0 1.467-.66 1.467-1.467v-4.398c0-.807-.66-1.467-1.467-1.467h-8.774c-.807 0-1.467.66-1.467 1.467v4.398c0 .807.66 1.467 1.467 1.467M377.893 177.118h8.774c.807 0 1.467-.66 1.467-1.467v-4.398c0-.807-.66-1.467-1.467-1.467h-8.774c-.807 0-1.467.66-1.467 1.467v4.398c0 .807.66 1.467 1.467 1.467M376.928 203.952h38.15c.807 0 1.467-.66 1.467-1.467v-4.165c0-5.646-4.62-10.266-10.267-10.266h-20.55c-5.647 0-10.267 4.62-10.267 10.266v4.165c0 .807.66 1.467 1.467 1.467"/>
        <path fill="#1BBC86" d="M379.738 186.029v12.729c0 1.191.975 2.166 2.166 2.166h24.861a2.173 2.173 0 0 0 2.166-2.166v-12.729a2.173 2.173 0 0 0-2.166-2.166h-24.861a2.173 2.173 0 0 0-2.166 2.166"/>
        <path fill="#4AE2B4" d="M406.467 189.71v5.367a3.381 3.381 0 0 0-3.381 3.381h-17.503a3.38 3.38 0 0 0-3.381-3.38v-5.369a3.38 3.38 0 0 0 3.38-3.38h17.504a3.381 3.381 0 0 0 3.38 3.38"/>
        <path fill="#1BBC86" d="M394.335 189.013a3.381 3.381 0 1 0 0 6.762 3.381 3.381 0 0 0 0-6.762"/>
        <path fill="#1BBC86" d="M373.537 186.029v12.729c0 1.191.975 2.166 2.166 2.166h24.861a2.173 2.173 0 0 0 2.166-2.166v-12.729a2.173 2.173 0 0 0-2.166-2.166h-24.861a2.173 2.173 0 0 0-2.166 2.166"/>
        <path fill="#4AE2B4" d="M400.266 189.71v5.367a3.381 3.381 0 0 0-3.381 3.381h-17.503a3.38 3.38 0 0 0-3.38-3.38v-5.369a3.38 3.38 0 0 0 3.38-3.38h17.503a3.381 3.381 0 0 0 3.38 3.38"/>
        <path fill="#1BBC86" d="M388.134 189.013a3.381 3.381 0 1 0 0 6.762 3.381 3.381 0 0 0 0-6.762"/>
        <path fill="#1BBC86" d="M367.336 186.029v12.729c0 1.191.975 2.166 2.166 2.166h24.861a2.173 2.173 0 0 0 2.166-2.166v-12.729a2.173 2.173 0 0 0-2.166-2.166h-24.86a2.173 2.173 0 0 0-2.167 2.166"/>
        <path fill="#4AE2B4" d="M394.065 189.71v5.367a3.381 3.381 0 0 0-3.381 3.381H373.18a3.38 3.38 0 0 0-3.38-3.38v-5.369a3.38 3.38 0 0 0 3.38-3.38h17.503a3.381 3.381 0 0 0 3.38 3.38"/>
        <path fill="#1BBC86" d="M381.933 189.013a3.381 3.381 0 1 0 0 6.762 3.381 3.381 0 0 0 0-6.762"/>
        <path fill="#CFD1D3" d="M375.462 201.965c0-1.21.158-2.385.452-3.507h40.18c.294 1.122.45 2.297.45 3.507a1.993 1.993 0 0 1-1.986 1.987h-37.11a1.993 1.993 0 0 1-1.986-1.987"/>
        <path fill="#4F78BC" d="M350.081 203.952h34.51v-7.537c0-4.6-3.762-8.361-8.36-8.361h-17.789c-4.599 0-8.361 3.762-8.361 8.36v7.538z"/>
        <path fill="#3764A5" d="M362.787 194.483h6.142c.807 0 1.467.66 1.467 1.468v1.04c0 .807-.66 1.467-1.467 1.467h-6.142c-.807 0-1.467-.66-1.467-1.466v-1.041c0-.808.66-1.468 1.467-1.468"/>
        <path fill="#FCDFC5" d="M109.05 191.308v-21.972H80.1v21.972z"/>
        <path fill="#FFEBD7" d="M49.183 104.437c4.582 0 8.296 7.292 8.296 16.287 0 8.996-3.714 16.287-8.296 16.287-4.582 0-8.296-7.291-8.296-16.287 0-8.995 3.714-16.287 8.296-16.287M139.967 104.437c4.582 0 8.296 7.292 8.296 16.287 0 8.996-3.714 16.287-8.296 16.287-4.582 0-8.297-7.291-8.297-16.287 0-8.995 3.715-16.287 8.297-16.287"/>
        <path fill="#1C0F04" d="M139.967 104.437s5.852-12.437-.955-28.852c-5.849-14.105-9.561-12.806-9.561-12.806s2.509-10.391-7.213-11.645c-9.722-1.255-42.409-1.265-52.356 2.498-9.947 3.763-22.638 8.467-26.715 6.586-4.077-1.882-.627 5.33 6.273 8.467a85.06 85.06 0 0 0-1.326 33.015l2.978 19.024-.996 10.435c-1.903 19.913 9.662 38.664 28.31 45.903a44.687 44.687 0 0 0 32.338 0c18.648-7.24 30.212-25.99 28.31-45.903l-.997-10.435 1.91-16.287z"/>
        <path fill="#FFF" d="M66.73 205.39h55.69l.665-.753a1.61 1.61 0 0 0 .313-1.59l-4.064-11.738a1.596 1.596 0 0 0-1.48-1.077v-.006H71.246v.012a1.592 1.592 0 0 0-1.43 1.07l-4.064 11.74a1.61 1.61 0 0 0 .313 1.589l.665.754z"/>
        <path fill="#17335B" d="M38.5 302.387H161.094v-69.162c0-15.86-12.856-28.715-28.715-28.715H56.77c-15.858 0-28.714 12.856-28.714 28.715V301L32 302l6.5.387z"/>
        <mask id="d" fill="#fff">
            <use xlink:href="#c"/>
        </mask>
        <path fill="#FFDA65" d="M171.169 252.784h88.844v-77.67h-88.844z" mask="url(#d)"/>
        <path fill="#FFDA65" d="M254.632 169.21h-76.73l-6.733 5.905h88.844z" mask="url(#d)"/>
        <path fill="#FFB842" d="M175.973 170.903l-2.874 2.52h85.372l-2.297-2.52z" mask="url(#d)"/>
        <path fill="#FFCB3D" d="M171.244 246.126v6.658h6.659a6.658 6.658 0 0 0-6.659-6.658M260.089 246.126a6.658 6.658 0 0 0-6.658 6.658h6.658v-6.658z" mask="url(#d)"/>
        <path fill="#FFB842" d="M211.165 252.784h6.807v-77.67h-6.807z" mask="url(#d)"/>
        <path fill="#FFB842" d="M217.972 175.114h-6.807l.744-5.904h5.236z" mask="url(#d)"/>
    </g>
</svg>
